<?xml version="1.0" encoding="UTF-8"?>
<svg id="Layer_1" data-name="Layer 1" xmlns="http://www.w3.org/2000/svg" width="200" height="120" viewBox="0 0 200 120">
  <defs>
    <style>
      .cls-1 {
        fill: #333;
      }
    </style>
  </defs>
  <g>
    <path d="M9.3,46.38h9.46c2.98,0,5.55-.49,7.7-1.46,2.15-.97,3.8-2.35,4.95-4.15,1.16-1.79,1.74-3.93,1.74-6.41s-.58-4.72-1.74-6.51c-1.16-1.79-2.81-3.17-4.95-4.12-2.15-.96-4.71-1.43-7.7-1.43H5.58V57.49h3.72v-11.11ZM26.68,27.82c1.83,1.54,2.74,3.72,2.74,6.54s-.91,4.94-2.74,6.46c-1.83,1.53-4.5,2.29-8.02,2.29H9.3V25.5h9.35c3.52,0,6.19,.77,8.02,2.31Z"/>
    <path d="M44.63,24.5c.49-.5,.73-1.12,.73-1.86s-.25-1.29-.75-1.76c-.5-.47-1.12-.7-1.86-.7s-1.36,.24-1.86,.73c-.5,.49-.75,1.08-.75,1.79s.25,1.31,.75,1.81,1.12,.75,1.86,.75,1.4-.25,1.89-.75Z"/>
    <rect x="40.94" y="31.09" width="3.57" height="26.4"/>
    <path d="M73.6,32.07c-1.63-.82-3.51-1.23-5.66-1.23-2.55,0-4.75,.55-6.59,1.63-1.49,.88-2.64,2.04-3.47,3.46v-4.85h-3.42v26.4h3.57v-13.88c0-2.01,.38-3.73,1.13-5.15,.75-1.42,1.83-2.51,3.22-3.27,1.39-.75,3.03-1.13,4.9-1.13,2.51,0,4.47,.71,5.86,2.14,1.39,1.43,2.09,3.53,2.09,6.31v14.99h3.57v-15.34c0-2.55-.46-4.66-1.38-6.34-.92-1.68-2.2-2.92-3.82-3.75Z"/>
    <path d="M17.47,85.6c1.06-1.06,2.31-1.87,3.75-2.46s3.03-.87,4.75-.87c1.83,0,3.53,.37,5.1,1.11s2.97,1.83,4.2,3.27l5.54-5.07c-1.76-2.15-3.94-3.78-6.55-4.88-2.61-1.11-5.51-1.66-8.71-1.66-2.85,0-5.5,.47-7.95,1.4-2.45,.93-4.58,2.26-6.39,3.99-1.81,1.73-3.22,3.75-4.22,6.07-1,2.32-1.5,4.88-1.5,7.66s.5,5.33,1.5,7.66c1,2.32,2.4,4.35,4.2,6.07,1.8,1.72,3.92,3.05,6.36,3.99,2.45,.93,5.1,1.4,7.95,1.4,3.24,0,6.16-.56,8.77-1.69,2.6-1.13,4.79-2.76,6.55-4.91l-5.54-5.07c-1.23,1.44-2.63,2.54-4.2,3.3s-3.27,1.13-5.1,1.13c-1.72,0-3.31-.29-4.75-.87s-2.69-1.4-3.75-2.46c-1.06-1.06-1.88-2.31-2.46-3.75-.58-1.44-.87-3.04-.87-4.81s.29-3.36,.87-4.8c.58-1.44,1.4-2.69,2.46-3.75Z"/>
    <path d="M66.47,85.68c-2.36-1.25-5.05-1.88-8.08-1.88s-5.66,.62-8,1.88c-2.34,1.25-4.18,2.97-5.52,5.17s-2.01,4.73-2.01,7.58,.67,5.33,2.01,7.52c1.34,2.2,3.18,3.93,5.52,5.2,2.34,1.27,5.01,1.9,8,1.9s5.72-.63,8.08-1.9,4.21-2.99,5.54-5.17c1.34-2.18,2.01-4.7,2.01-7.55s-.67-5.38-2.01-7.58c-1.34-2.2-3.19-3.92-5.54-5.17Zm-1.77,16.98c-.65,1.2-1.51,2.1-2.59,2.72-1.07,.62-2.31,.92-3.72,.92s-2.55-.31-3.64-.92c-1.09-.62-1.96-1.52-2.61-2.72-.65-1.2-.98-2.61-.98-4.22s.32-3.06,.98-4.22c.65-1.16,1.52-2.05,2.61-2.67,1.09-.62,2.32-.92,3.7-.92s2.6,.31,3.67,.92c1.07,.62,1.94,1.51,2.59,2.67,.65,1.16,.98,2.57,.98,4.22s-.33,3.03-.98,4.22Z"/>
    <rect x="79.51" y="73.46" width="8.24" height="39.18"/>
    <rect x="95.41" y="73.46" width="8.24" height="39.18"/>
    <path d="M131.87,85.6c-2.24-1.2-4.74-1.79-7.52-1.79s-5.48,.62-7.79,1.88-4.1,2.98-5.39,5.2c-1.29,2.22-1.93,4.73-1.93,7.55s.67,5.33,2.01,7.52c1.34,2.2,3.22,3.93,5.65,5.2,2.43,1.27,5.26,1.9,8.5,1.9,2.57,0,4.84-.4,6.81-1.19s3.61-1.93,4.91-3.41l-4.38-4.75c-.95,.92-2,1.6-3.14,2.06-1.14,.46-2.46,.69-3.93,.69-1.73,0-3.2-.31-4.44-.92-1.23-.62-2.2-1.5-2.9-2.67-.39-.64-.66-1.35-.83-2.11h21.48c.03-.35,.07-.73,.11-1.14,.03-.4,.05-.77,.05-1.08,0-3.06-.65-5.68-1.95-7.87-1.3-2.18-3.07-3.87-5.31-5.07Zm-11.19,5.36c1.07-.62,2.31-.92,3.72-.92s2.64,.31,3.7,.92c1.06,.62,1.88,1.47,2.48,2.56,.4,.72,.64,1.54,.76,2.43h-13.94c.14-.88,.38-1.69,.77-2.4,.6-1.11,1.43-1.97,2.51-2.59Z"/>
    <path d="M154.55,91.54c1.13-.62,2.38-.92,3.75-.92,1.3,0,2.5,.31,3.59,.92,1.09,.62,2.02,1.59,2.8,2.93l6.34-3.48c-.99-2.29-2.6-4.06-4.83-5.31s-4.85-1.88-7.84-1.88-5.78,.63-8.16,1.9c-2.38,1.27-4.24,2.99-5.6,5.17-1.36,2.18-2.03,4.7-2.03,7.55s.68,5.33,2.03,7.55c1.35,2.22,3.22,3.95,5.6,5.2,2.38,1.25,5.1,1.88,8.16,1.88s5.61-.63,7.84-1.9,3.85-3.03,4.83-5.28l-6.34-3.49c-.77,1.37-1.71,2.37-2.8,2.98-1.09,.62-2.29,.92-3.59,.92-1.37,0-2.62-.31-3.75-.92-1.13-.62-2.03-1.51-2.69-2.69-.67-1.18-1-2.6-1-4.25s.33-3.06,1-4.22c.67-1.16,1.57-2.05,2.69-2.67Z"/>
    <path d="M192.35,105.46c-.92,.71-2.04,1.06-3.38,1.06-1.06,0-1.89-.33-2.51-1-.62-.67-.92-1.6-.92-2.8v-11.51h7.02v-6.34h-7.02v-6.92h-8.29v6.92h-4.38v6.34h4.38v11.67c0,3.38,.93,5.92,2.8,7.63,1.87,1.71,4.47,2.56,7.82,2.56,1.27,0,2.49-.15,3.67-.45,1.18-.3,2.17-.75,2.98-1.35l-2.17-5.81Z"/>
  </g>
  <path class="cls-1" d="M177.23,6.73H106.35c-7.5,0-13.59,6.08-13.59,13.59V56.28c0,7.5,6.08,13.59,13.59,13.59h70.88c7.5,0,13.59-6.08,13.59-13.59V20.31c0-7.5-6.08-13.59-13.59-13.59Zm-35.44,57.48c-14.29,0-25.91-11.62-25.91-25.91s11.62-25.91,25.91-25.91,25.91,11.62,25.91,25.91-11.62,25.91-25.91,25.91Z"/>
  <path class="cls-1" d="M141.8,15.41c-12.62,0-22.89,10.27-22.89,22.89s10.27,22.89,22.89,22.89,22.89-10.27,22.89-22.89-10.27-22.89-22.89-22.89Zm18.4,17.71c.47,1.66,.8,3.37,.8,5.18,0,10.6-8.59,19.2-19.2,19.2s-19.2-8.59-19.2-19.2,8.59-19.2,19.2-19.2c3.93,0,7.58,1.19,10.63,3.22-3.82,.45-6.82,3.58-6.82,7.52,0,4.25,3.44,7.69,7.69,7.69,3.06,0,5.66-1.82,6.9-4.41Z"/>
</svg>