<?xml version="1.0" encoding="UTF-8"?>
<svg id="Layer_1" data-name="Layer 1" xmlns="http://www.w3.org/2000/svg" width="200" height="56.29" viewBox="0 0 200 56.29">
  <defs>
    <style>
      .cls-1 {
        fill: #fff;
      }

      .cls-2 {
        fill: #333;
      }
    </style>
  </defs>
  <g>
    <path class="cls-2" d="M15.28,16.82c-1.57-.7-3.45-1.05-5.64-1.05H0v25.78H2.73v-8.14h6.92c2.19,0,4.06-.36,5.64-1.07s2.78-1.72,3.63-3.04,1.27-2.88,1.27-4.7-.42-3.46-1.27-4.77c-.85-1.31-2.06-2.32-3.63-3.02Zm.17,12.52c-1.34,1.12-3.3,1.68-5.87,1.68H2.73v-12.89h6.85c2.58,0,4.54,.56,5.87,1.69,1.34,1.13,2.01,2.73,2.01,4.79s-.67,3.62-2.01,4.73Z"/>
    <path class="cls-2" d="M27.22,14.23c-.54,0-.99,.18-1.36,.53-.37,.36-.55,.79-.55,1.31s.18,.96,.55,1.33,.82,.55,1.36,.55,1.03-.18,1.38-.55c.36-.37,.53-.82,.53-1.36s-.18-.94-.55-1.29c-.37-.34-.82-.52-1.36-.52Z"/>
    <rect class="cls-2" x="25.89" y="22.22" width="2.61" height="19.34"/>
    <path class="cls-2" d="M52.61,25.68c-.68-1.23-1.61-2.14-2.8-2.74-1.19-.6-2.57-.9-4.14-.9-1.87,0-3.47,.4-4.82,1.2-1.09,.64-1.93,1.5-2.54,2.54v-3.55h-2.5v19.34h2.61v-10.17c0-1.47,.28-2.73,.83-3.78,.55-1.04,1.34-1.84,2.36-2.39s2.22-.83,3.59-.83c1.84,0,3.27,.52,4.29,1.57,1.02,1.04,1.53,2.58,1.53,4.62v10.98h2.62v-11.23c0-1.87-.34-3.41-1.01-4.64Z"/>
  </g>
  <rect class="cls-2" x="57.52" width="142.48" height="56.29" rx="4.94" ry="4.94"/>
  <path class="cls-1" d="M72.28,22.71c.74-.74,1.61-1.31,2.61-1.71,1.01-.41,2.11-.61,3.31-.61,1.28,0,2.46,.26,3.55,.77,1.09,.52,2.07,1.28,2.92,2.28l3.87-3.53c-1.23-1.5-2.75-2.63-4.56-3.4-1.82-.77-3.84-1.16-6.07-1.16-1.99,0-3.83,.33-5.54,.97-1.71,.65-3.19,1.58-4.45,2.78-1.26,1.2-2.24,2.61-2.94,4.23-.7,1.62-1.05,3.4-1.05,5.34s.35,3.72,1.05,5.34c.7,1.62,1.67,3.03,2.93,4.23s2.73,2.13,4.44,2.78c1.7,.65,3.55,.98,5.54,.98,2.26,0,4.29-.39,6.11-1.18,1.82-.78,3.34-1.93,4.56-3.42l-3.87-3.53c-.86,1.01-1.83,1.77-2.92,2.3-1.09,.53-2.28,.79-3.55,.79-1.2,0-2.31-.2-3.31-.61-1.01-.41-1.88-.98-2.61-1.71s-1.31-1.61-1.71-2.61c-.4-1.01-.61-2.12-.61-3.35s.2-2.34,.61-3.35c.41-1.01,.98-1.88,1.71-2.61Z"/>
  <path class="cls-1" d="M106.43,22.77c-1.64-.87-3.52-1.31-5.63-1.31s-3.94,.44-5.58,1.31c-1.63,.87-2.91,2.07-3.85,3.61-.93,1.53-1.4,3.29-1.4,5.28s.46,3.71,1.4,5.25c.93,1.53,2.21,2.74,3.85,3.62s3.49,1.33,5.58,1.33,3.99-.44,5.63-1.33c1.64-.88,2.93-2.09,3.86-3.61s1.4-3.28,1.4-5.26-.47-3.75-1.4-5.28-2.22-2.74-3.86-3.61Zm-1.23,11.83c-.45,.83-1.05,1.47-1.8,1.9-.75,.43-1.61,.64-2.59,.64s-1.78-.22-2.54-.64c-.76-.43-1.37-1.06-1.82-1.9-.45-.83-.68-1.82-.68-2.94s.23-2.13,.68-2.94c.45-.81,1.06-1.43,1.82-1.86,.76-.43,1.62-.64,2.58-.64s1.81,.22,2.56,.64c.75,.43,1.35,1.05,1.8,1.86,.45,.81,.68,1.79,.68,2.94s-.23,2.11-.68,2.94Z"/>
  <rect class="cls-1" x="115.53" y="14.25" width="5.74" height="27.31"/>
  <rect class="cls-1" x="126.6" y="14.25" width="5.74" height="27.31"/>
  <path class="cls-1" d="M152.02,22.71c-1.56-.83-3.31-1.25-5.24-1.25s-3.82,.44-5.43,1.31c-1.61,.87-2.86,2.08-3.75,3.63-.9,1.54-1.34,3.3-1.34,5.26s.46,3.71,1.4,5.25c.93,1.53,2.24,2.74,3.94,3.62,1.69,.88,3.67,1.33,5.93,1.33,1.79,0,3.37-.28,4.75-.83s2.51-1.34,3.42-2.37l-3.06-3.31c-.66,.64-1.39,1.12-2.19,1.43-.8,.32-1.71,.48-2.74,.48-1.2,0-2.23-.21-3.09-.64-.86-.43-1.53-1.05-2.02-1.86-.27-.44-.46-.94-.58-1.47h14.97c.02-.25,.05-.51,.07-.79,.02-.28,.04-.53,.04-.75,0-2.13-.45-3.96-1.36-5.48-.91-1.52-2.14-2.7-3.7-3.53Zm-7.8,3.74c.75-.43,1.61-.64,2.6-.64s1.84,.22,2.58,.64c.74,.43,1.31,1.02,1.73,1.78,.28,.5,.45,1.07,.53,1.69h-9.71c.1-.61,.27-1.18,.54-1.67,.42-.77,1-1.37,1.75-1.8Z"/>
  <path class="cls-1" d="M167.82,26.85c.78-.43,1.66-.64,2.61-.64s1.74,.22,2.5,.64c.76,.43,1.41,1.11,1.95,2.04l4.42-2.43c-.69-1.6-1.81-2.83-3.37-3.7-1.56-.87-3.38-1.31-5.47-1.31s-4.03,.44-5.69,1.33c-1.66,.88-2.96,2.09-3.9,3.61-.94,1.52-1.42,3.28-1.42,5.26s.47,3.72,1.42,5.26c.94,1.55,2.24,2.75,3.9,3.62,1.66,.87,3.55,1.31,5.69,1.31s3.91-.44,5.47-1.33c1.56-.88,2.68-2.11,3.37-3.68l-4.42-2.43c-.54,.96-1.19,1.65-1.95,2.08-.76,.43-1.6,.64-2.5,.64-.96,0-1.83-.22-2.61-.64-.79-.43-1.41-1.05-1.88-1.88-.47-.82-.7-1.81-.7-2.96s.23-2.13,.7-2.94c.46-.81,1.09-1.43,1.88-1.86Z"/>
  <path class="cls-1" d="M194.17,36.55c-.64,.49-1.42,.74-2.36,.74-.74,0-1.32-.23-1.75-.7s-.64-1.12-.64-1.95v-8.02h4.89v-4.42h-4.89v-4.82h-5.78v4.82h-3.05v4.42h3.05v8.13c0,2.35,.65,4.13,1.95,5.32,1.3,1.19,3.12,1.79,5.45,1.79,.88,0,1.74-.1,2.56-.31s1.52-.52,2.08-.94l-1.51-4.05Z"/>
  <circle class="cls-1" cx="77.98" cy="28.68" r="4.33"/>
</svg>