<?xml version="1.0" encoding="utf-8"?>
<!-- Generator: Adobe Illustrator 26.5.0, SVG Export Plug-In . SVG Version: 6.00 Build 0)  -->
<svg version="1.1" id="Layer_1" xmlns="http://www.w3.org/2000/svg" xmlns:xlink="http://www.w3.org/1999/xlink" x="0px" y="0px"
	 viewBox="0 0 200 120" style="enable-background:new 0 0 200 120;" xml:space="preserve">
<style type="text/css">
	.st0{fill:#FFFFFF;}
	.st1{fill:none;stroke:#FFFFFF;stroke-width:0.5;stroke-miterlimit:10;}
	.st2{fill:#333333;}
	.st3{fill:#1E1E1E;}
	.st4{fill:none;stroke:#000000;stroke-miterlimit:10;}
</style>
<g>
	<g>
		<path d="M33.9,3.4c5,0,8.7,1,11.1,3c2.3,2,3.5,4.8,3.5,8.5c0,1.7-0.3,3.2-0.8,4.7c-0.5,1.5-1.4,2.8-2.6,3.9
			c-1.2,1.1-2.8,2-4.8,2.7c-2,0.7-4.4,1-7.2,1h-4.8v15.4h-4.5V3.4H33.9z M33.4,7.3h-5.2v15.9h4.3c2.5,0,4.6-0.3,6.2-0.8
			c1.7-0.5,2.9-1.4,3.8-2.6c0.8-1.2,1.3-2.8,1.3-4.8c0-2.6-0.8-4.5-2.5-5.8C39.6,7.9,37,7.3,33.4,7.3z"/>
		<path d="M58.2,2.3c0.7,0,1.4,0.2,1.9,0.7c0.5,0.5,0.8,1.2,0.8,2.2c0,1-0.3,1.7-0.8,2.2c-0.5,0.5-1.2,0.7-1.9,0.7
			c-0.8,0-1.4-0.2-1.9-0.7c-0.5-0.5-0.8-1.2-0.8-2.2c0-1,0.3-1.7,0.8-2.2C56.8,2.5,57.4,2.3,58.2,2.3z M60.4,13.2v29.3h-4.4V13.2
			H60.4z"/>
		<path d="M83.6,12.7c3.5,0,6.1,0.9,7.9,2.6c1.8,1.7,2.7,4.4,2.7,8.2v19.1h-4.4V23.7c0-2.4-0.6-4.3-1.7-5.5C87,17,85.3,16.4,83,16.4
			c-3.2,0-5.5,0.9-6.8,2.8c-1.3,1.8-2,4.5-2,8v15.4h-4.4V13.2h3.6l0.7,4.2h0.2c0.6-1,1.4-1.9,2.4-2.6c1-0.7,2-1.2,3.2-1.6
			C81.1,12.9,82.3,12.7,83.6,12.7z"/>
	</g>
	<g>
		<path d="M20.7,72.4c-1.6,0-3,0.3-4.2,0.9c-1.2,0.6-2.2,1.5-3.1,2.7c-0.8,1.2-1.5,2.6-1.9,4.2c-0.4,1.6-0.6,3.5-0.6,5.5
			c0,2.8,0.3,5.1,1,7.1c0.7,1.9,1.8,3.4,3.2,4.5c1.4,1,3.3,1.5,5.6,1.5c1.6,0,3.2-0.2,4.8-0.5c1.6-0.4,3.3-0.9,5.2-1.5v7
			c-1.7,0.7-3.4,1.2-5.1,1.5c-1.7,0.3-3.6,0.5-5.6,0.5c-4,0-7.3-0.8-9.9-2.5c-2.6-1.7-4.5-4-5.8-7c-1.3-3-1.9-6.5-1.9-10.5
			c0-3,0.4-5.7,1.2-8.1c0.8-2.5,2-4.6,3.5-6.4c1.6-1.8,3.5-3.2,5.8-4.2c2.3-1,4.9-1.5,7.9-1.5c1.9,0,3.9,0.2,5.8,0.7
			c2,0.5,3.8,1.2,5.6,2L29.5,75c-1.5-0.7-2.9-1.3-4.4-1.8C23.6,72.6,22.1,72.4,20.7,72.4z"/>
		<path d="M65.5,90.1c0,2.5-0.3,4.7-1,6.6c-0.7,1.9-1.6,3.6-2.9,4.9c-1.3,1.3-2.8,2.3-4.6,3c-1.8,0.7-3.8,1-6.1,1
			c-2.1,0-4-0.3-5.8-1c-1.8-0.7-3.3-1.7-4.6-3c-1.3-1.3-2.3-3-3-4.9c-0.7-1.9-1.1-4.1-1.1-6.6c0-3.3,0.6-6.1,1.8-8.4
			c1.2-2.3,2.9-4,5-5.2c2.2-1.2,4.8-1.8,7.8-1.8c2.8,0,5.3,0.6,7.4,1.8c2.2,1.2,3.9,2.9,5.1,5.2C64.9,84,65.5,86.8,65.5,90.1z
			 M44.9,90.1c0,2,0.2,3.6,0.6,4.9s1.1,2.3,2,3s2.1,1,3.6,1c1.4,0,2.6-0.3,3.5-1c0.9-0.7,1.6-1.7,2-3c0.4-1.3,0.6-3,0.6-4.9
			c0-2-0.2-3.6-0.6-4.9c-0.4-1.3-1.1-2.3-2-3c-0.9-0.7-2.1-1-3.6-1c-2.2,0-3.7,0.7-4.7,2.2C45.4,85,44.9,87.2,44.9,90.1z"/>
		<path d="M80.4,105.2h-8.2V63.5h8.2V105.2z"/>
		<path d="M97.2,105.2H89V63.5h8.2V105.2z"/>
		<path d="M118,74.6c4,0,7.1,0.9,9.2,2.6c2.1,1.7,3.2,4.4,3.2,8v19.9h-5.7l-1.6-4.1h-0.2c-0.9,1.1-1.7,1.9-2.6,2.6
			c-0.9,0.7-1.9,1.2-3.1,1.5c-1.2,0.3-2.6,0.5-4.2,0.5c-1.8,0-3.3-0.3-4.8-1c-1.4-0.7-2.5-1.7-3.3-3.1c-0.8-1.4-1.2-3.2-1.2-5.3
			c0-3.2,1.1-5.5,3.3-7c2.2-1.5,5.6-2.3,10-2.5l5.2-0.2v-1.3c0-1.6-0.4-2.7-1.2-3.5c-0.8-0.7-2-1.1-3.4-1.1c-1.4,0-2.9,0.2-4.3,0.6
			c-1.4,0.4-2.8,0.9-4.2,1.6l-2.7-5.5c1.6-0.8,3.4-1.5,5.3-2C113.8,74.9,115.9,74.6,118,74.6z M122.3,91.3l-3.2,0.1
			c-2.6,0.1-4.5,0.5-5.5,1.4c-1,0.9-1.5,2-1.5,3.5c0,1.2,0.4,2.1,1.1,2.7c0.7,0.5,1.7,0.8,2.9,0.8c1.7,0,3.2-0.5,4.4-1.6
			c1.2-1,1.8-2.5,1.8-4.4V91.3z"/>
		<path d="M147.5,118.3c-4.2,0-7.4-0.7-9.6-2.2c-2.2-1.4-3.3-3.5-3.3-6.1c0-1.8,0.6-3.3,1.7-4.5c1.1-1.2,2.8-2.1,4.9-2.6
			c-0.8-0.4-1.6-0.9-2.2-1.8c-0.6-0.8-0.9-1.7-0.9-2.6c0-1.1,0.3-2.1,1-2.8c0.7-0.8,1.6-1.5,2.9-2.2c-1.6-0.7-2.8-1.8-3.7-3.3
			c-0.9-1.5-1.4-3.3-1.4-5.3c0-2.2,0.5-4,1.4-5.6c1-1.5,2.3-2.7,4.2-3.5c1.8-0.8,4.1-1.2,6.7-1.2c0.6,0,1.2,0,1.9,0.1
			c0.7,0.1,1.4,0.1,2,0.2c0.6,0.1,1,0.2,1.2,0.2h10.4v4.1l-4.7,1.2c0.4,0.7,0.7,1.4,1,2.1c0.2,0.7,0.3,1.5,0.3,2.4
			c0,3.2-1.1,5.7-3.4,7.5c-2.2,1.8-5.3,2.7-9.3,2.7c-0.9-0.1-1.8-0.1-2.7-0.2c-0.4,0.3-0.7,0.7-0.9,1c-0.2,0.4-0.3,0.7-0.3,1.1
			s0.2,0.7,0.5,1c0.3,0.3,0.8,0.4,1.5,0.6c0.7,0.1,1.5,0.2,2.5,0.2h5.1c3.3,0,5.8,0.7,7.5,2.1c1.7,1.4,2.6,3.5,2.6,6.2
			c0,3.5-1.5,6.2-4.4,8.1C157.2,117.3,153,118.3,147.5,118.3z M147.9,113c1.9,0,3.6-0.2,5-0.6c1.4-0.4,2.5-0.9,3.2-1.6
			c0.7-0.7,1.1-1.5,1.1-2.4c0-0.7-0.2-1.3-0.7-1.8c-0.4-0.4-1.1-0.7-2-0.9c-0.9-0.2-2-0.3-3.4-0.3H147c-1,0-1.9,0.2-2.7,0.5
			c-0.8,0.3-1.4,0.8-1.9,1.3c-0.5,0.6-0.7,1.3-0.7,2c0,1.1,0.5,2,1.6,2.6C144.4,112.7,145.9,113,147.9,113z M149.2,90.3
			c1.5,0,2.7-0.5,3.4-1.4c0.7-0.9,1.1-2.2,1.1-3.9c0-1.8-0.4-3.2-1.1-4.1c-0.7-0.9-1.9-1.3-3.3-1.3c-1.5,0-2.6,0.4-3.4,1.3
			c-0.7,0.9-1.1,2.3-1.1,4.1c0,1.6,0.4,2.9,1.1,3.9C146.6,89.8,147.7,90.3,149.2,90.3z"/>
		<path d="M182.1,74.7c2.8,0,5.1,0.5,7.1,1.6c2,1.1,3.5,2.6,4.6,4.6c1.1,2,1.6,4.5,1.6,7.4v4h-19.3c0.1,2.3,0.8,4.1,2.1,5.4
			c1.3,1.3,3.1,2,5.4,2c1.9,0,3.7-0.2,5.2-0.6c1.6-0.4,3.2-1,4.9-1.8v6.3c-1.5,0.7-3,1.3-4.6,1.6c-1.6,0.3-3.6,0.5-5.9,0.5
			c-3,0-5.6-0.6-8-1.7c-2.3-1.1-4.1-2.8-5.4-5.1s-2-5.1-2-8.6c0-3.5,0.6-6.4,1.8-8.7c1.2-2.3,2.8-4.1,5-5.2
			C176.8,75.3,179.3,74.7,182.1,74.7z M182.1,80.5c-1.6,0-2.9,0.5-3.9,1.5c-1,1-1.6,2.6-1.8,4.8h11.4c0-1.2-0.2-2.3-0.7-3.2
			c-0.4-0.9-1-1.7-1.9-2.2C184.5,80.8,183.4,80.5,182.1,80.5z"/>
	</g>
	<g>
		<path class="st2" d="M185.3,1.7H121c-6.8,0-12.3,5.5-12.3,12.3v32.6c0,6.8,5.5,12.3,12.3,12.3h64.3c6.8,0,12.3-5.5,12.3-12.3V14
			C197.6,7.2,192.1,1.7,185.3,1.7z M153.2,53.8c-13,0-23.5-10.5-23.5-23.5c0-13,10.5-23.5,23.5-23.5c13,0,23.5,10.5,23.5,23.5
			C176.7,43.3,166.1,53.8,153.2,53.8z"/>
		<path class="st2" d="M153.2,9.6c-11.5,0-20.8,9.3-20.8,20.8s9.3,20.8,20.8,20.8c11.5,0,20.8-9.3,20.8-20.8S164.6,9.6,153.2,9.6z
			 M169.8,25.6c0.4,1.5,0.7,3.1,0.7,4.7c0,9.6-7.8,17.4-17.4,17.4c-9.6,0-17.4-7.8-17.4-17.4c0-9.6,7.8-17.4,17.4-17.4
			c3.6,0,6.9,1.1,9.6,2.9c-3.5,0.4-6.2,3.2-6.2,6.8c0,3.9,3.1,7,7,7C166.4,29.6,168.7,28,169.8,25.6z"/>
	</g>
</g>
</svg>
