<?xml version="1.0" encoding="UTF-8"?>
<svg id="Layer_1" data-name="Layer 1" xmlns="http://www.w3.org/2000/svg" width="200" height="120" viewBox="0 0 200 120">
  <defs>
    <style>
      .cls-1 {
        fill: #333;
      }
    </style>
  </defs>
  <g>
    <g>
      <path d="M15.37,6.26c5.57,0,9.63,1.08,12.19,3.25,2.56,2.18,3.84,5.28,3.84,9.33,0,1.83-.3,3.56-.9,5.21-.6,1.64-1.57,3.08-2.91,4.33-1.33,1.25-3.09,2.23-5.26,2.95-2.18,.72-4.83,1.08-7.98,1.08h-5.25v16.95H4.11V6.26H15.37Zm-.47,4.27h-5.78V28.1h4.69c2.75,0,5.05-.29,6.89-.88,1.83-.59,3.22-1.55,4.14-2.87,.93-1.33,1.39-3.1,1.39-5.29,0-2.87-.91-5.01-2.74-6.42-1.83-1.4-4.69-2.11-8.58-2.11Z"/>
      <path d="M42.2,4.96c.81,0,1.5,.26,2.08,.78,.58,.52,.87,1.33,.87,2.44s-.29,1.89-.87,2.42c-.58,.53-1.27,.8-2.08,.8s-1.54-.27-2.11-.8-.84-1.34-.84-2.42,.28-1.91,.84-2.44c.56-.52,1.26-.78,2.11-.78Zm2.39,12.09V49.36h-4.89V17.05h4.89Z"/>
      <path d="M70.24,16.46c3.83,0,6.73,.94,8.7,2.82,1.97,1.88,2.95,4.89,2.95,9.03v21.05h-4.84V28.63c0-2.69-.61-4.71-1.84-6.04-1.23-1.34-3.11-2-5.65-2-3.57,0-6.09,1.01-7.55,3.04-1.45,2.02-2.18,4.96-2.18,8.82v16.92h-4.89V17.05h3.95l.74,4.66h.27c.69-1.14,1.56-2.1,2.62-2.88,1.06-.77,2.25-1.36,3.57-1.77,1.32-.4,2.71-.6,4.16-.6Z"/>
    </g>
    <g>
      <path class="cls-1" d="M182.31,4.34H111.43c-7.5,0-13.59,6.08-13.59,13.59V53.89c0,7.5,6.08,13.59,13.59,13.59h70.88c7.5,0,13.59-6.08,13.59-13.59V17.92c0-7.5-6.08-13.59-13.59-13.59Zm-35.44,57.48c-14.29,0-25.91-11.62-25.91-25.91s11.62-25.91,25.91-25.91,25.91,11.62,25.91,25.91-11.62,25.91-25.91,25.91Z"/>
      <path class="cls-1" d="M146.87,13.02c-12.62,0-22.89,10.27-22.89,22.89s10.27,22.89,22.89,22.89,22.89-10.27,22.89-22.89-10.27-22.89-22.89-22.89Zm18.4,17.71c.47,1.66,.8,3.37,.8,5.18,0,10.6-8.59,19.2-19.2,19.2s-19.2-8.59-19.2-19.2,8.59-19.2,19.2-19.2c3.93,0,7.58,1.19,10.63,3.22-3.82,.45-6.82,3.58-6.82,7.52,0,4.25,3.44,7.69,7.69,7.69,3.06,0,5.66-1.82,6.9-4.41Z"/>
    </g>
  </g>
  <g>
    <path d="M26.24,81.43c-1.63,0-3.08,.32-4.33,.95-1.26,.63-2.31,1.54-3.16,2.74s-1.5,2.63-1.94,4.32c-.44,1.69-.66,3.58-.66,5.69,0,2.84,.35,5.27,1.06,7.27,.71,2.01,1.8,3.54,3.29,4.59,1.48,1.05,3.4,1.58,5.75,1.58,1.63,0,3.27-.18,4.91-.55,1.64-.37,3.42-.89,5.35-1.57v7.15c-1.78,.73-3.53,1.26-5.25,1.58-1.72,.32-3.66,.48-5.8,.48-4.14,0-7.55-.86-10.21-2.57s-4.64-4.12-5.92-7.2c-1.28-3.09-1.92-6.69-1.92-10.82,0-3.04,.41-5.83,1.24-8.36s2.03-4.72,3.63-6.57c1.59-1.85,3.57-3.28,5.91-4.29,2.35-1.01,5.04-1.51,8.08-1.51,2,0,4,.25,6.01,.76,2.01,.5,3.93,1.2,5.76,2.08l-2.75,6.93c-1.5-.71-3.02-1.34-4.54-1.87-1.52-.53-3.02-.8-4.48-.8Z"/>
    <path d="M72.33,99.69c0,2.57-.34,4.84-1.03,6.82-.69,1.98-1.69,3.65-3,5.02-1.31,1.36-2.89,2.4-4.73,3.09-1.84,.7-3.92,1.05-6.23,1.05-2.16,0-4.15-.35-5.95-1.05-1.81-.7-3.37-1.73-4.7-3.09-1.33-1.37-2.36-3.04-3.08-5.02-.72-1.98-1.09-4.25-1.09-6.82,0-3.41,.6-6.3,1.81-8.66s2.93-4.16,5.17-5.39c2.24-1.23,4.9-1.84,8-1.84,2.88,0,5.43,.61,7.66,1.84s3.98,3.02,5.25,5.39c1.27,2.36,1.91,5.25,1.91,8.66Zm-21.25,0c0,2.02,.22,3.71,.66,5.09s1.13,2.41,2.06,3.11c.93,.7,2.15,1.05,3.66,1.05s2.69-.35,3.62-1.05c.92-.7,1.6-1.73,2.03-3.11s.65-3.07,.65-5.09-.22-3.73-.65-5.07c-.43-1.35-1.11-2.36-2.05-3.04s-2.15-1.02-3.66-1.02c-2.22,0-3.83,.76-4.83,2.28-1,1.52-1.5,3.8-1.5,6.85Z"/>
    <path d="M87.64,115.11h-8.39v-42.78h8.39v42.78Z"/>
    <path d="M104.83,115.11h-8.39v-42.78h8.39v42.78Z"/>
    <path d="M126.3,83.79c2.84,0,5.29,.55,7.34,1.64,2.05,1.09,3.64,2.67,4.76,4.74,1.12,2.07,1.68,4.6,1.68,7.59v4.07h-19.82c.09,2.36,.8,4.22,2.13,5.57,1.33,1.35,3.18,2.02,5.54,2.02,1.96,0,3.76-.2,5.39-.6,1.63-.4,3.31-1.01,5.03-1.81v6.49c-1.52,.75-3.11,1.3-4.77,1.65-1.66,.35-3.67,.52-6.03,.52-3.08,0-5.81-.57-8.18-1.71-2.37-1.14-4.23-2.87-5.58-5.2-1.35-2.33-2.02-5.26-2.02-8.8s.61-6.59,1.83-8.98c1.22-2.39,2.92-4.19,5.1-5.39,2.18-1.2,4.72-1.8,7.62-1.8Zm.05,5.97c-1.63,0-2.98,.52-4.05,1.57s-1.69,2.69-1.86,4.92h11.77c-.02-1.25-.24-2.35-.67-3.33s-1.07-1.74-1.92-2.31c-.85-.57-1.94-.85-3.26-.85Z"/>
    <path d="M159.38,115.66c-3.04,0-5.64-.55-7.78-1.66-2.15-1.11-3.78-2.83-4.89-5.16-1.12-2.33-1.68-5.31-1.68-8.94s.64-6.82,1.91-9.2,3.04-4.12,5.31-5.24c2.26-1.12,4.89-1.68,7.88-1.68,2.13,0,3.96,.21,5.51,.62s2.9,.9,4.06,1.47l-2.47,6.49c-1.32-.53-2.55-.97-3.68-1.31-1.14-.34-2.27-.51-3.41-.51-1.47,0-2.69,.34-3.66,1.03-.97,.69-1.7,1.72-2.17,3.09-.48,1.37-.71,3.1-.71,5.17s.26,3.72,.77,5.06,1.26,2.33,2.23,2.98c.97,.65,2.15,.98,3.55,.98,1.74,0,3.29-.23,4.65-.7,1.36-.47,2.68-1.12,3.96-1.97v7.18c-1.28,.81-2.63,1.39-4.03,1.75s-3.18,.54-5.32,.54Z"/>
    <path d="M188.8,108.98c.92,0,1.81-.09,2.68-.28,.87-.18,1.74-.41,2.6-.69v6.24c-.9,.4-2.01,.74-3.34,1-1.33,.27-2.78,.4-4.36,.4-1.83,0-3.48-.3-4.94-.89s-2.6-1.63-3.44-3.11c-.83-1.47-1.25-3.53-1.25-6.17v-14.82h-4.01v-3.55l4.62-2.8,2.42-6.49h5.36v6.54h8.61v6.3h-8.61v14.82c0,1.17,.33,2.05,1,2.63,.67,.58,1.55,.87,2.65,.87Z"/>
  </g>
</svg>